<svg width="77" height="76" viewBox="0 0 77 76" fill="none" xmlns="http://www.w3.org/2000/svg">
<rect width="77" height="76" fill="#494747"/>
<g id="iPhone 11 Pro / X - 1" clip-path="url(#clip0_0_1)">
<rect width="375" height="7824" transform="translate(-149 -2310)" fill="white"/>
<g id="Frame 18">
<g id="Group 12">
<circle id="Ellipse 4" cx="68" cy="29.5" r="22.5" fill="#53C1FF"/>
<g id="Crown">
<path id="Vector" d="M13.8975 58.1925C13.9715 58.5047 14.108 58.7987 14.2986 59.0568C14.4892 59.3149 14.7301 59.5318 15.0067 59.6944C15.2833 59.857 15.5899 59.9619 15.9081 60.0029C16.2264 60.0439 16.5496 60.0201 16.8584 59.9329C31.0161 56.0239 45.9683 56.0225 60.1267 59.9288C60.4354 60.0159 60.7585 60.0397 61.0766 59.9987C61.3947 59.9577 61.7013 59.8528 61.9778 59.6903C62.2543 59.5278 62.4951 59.3111 62.6857 59.0531C62.8763 58.7952 63.0128 58.5013 63.087 58.1893L70.6539 26.0327C70.7552 25.6022 70.7343 25.152 70.5936 24.7328C70.4528 24.3135 70.1978 23.9419 69.8572 23.6598C69.5167 23.3776 69.1041 23.1962 68.666 23.1359C68.2279 23.0756 67.7816 23.1388 67.3775 23.3184L52.3604 29.9926C51.8182 30.2336 51.2053 30.2629 50.6426 30.0747C50.0798 29.8865 49.6079 29.4945 49.3197 28.9757L40.576 13.2371C40.3704 12.8669 40.0694 12.5584 39.7044 12.3436C39.3393 12.1288 38.9235 12.0155 38.4999 12.0155C38.0764 12.0155 37.6605 12.1288 37.2955 12.3436C36.9305 12.5584 36.6295 12.8669 36.4238 13.2371L27.6801 28.9757C27.392 29.4945 26.92 29.8865 26.3573 30.0747C25.7945 30.2629 25.1817 30.2336 24.6394 29.9926L9.6201 23.3174C9.21605 23.1378 8.76989 23.0746 8.33185 23.1348C7.89382 23.1951 7.4813 23.3764 7.14075 23.6584C6.8002 23.9404 6.54513 24.3119 6.40427 24.731C6.2634 25.1502 6.24234 25.6003 6.34344 26.0307L13.8975 58.1925Z" stroke="black" stroke-width="2" stroke-linecap="round" stroke-linejoin="round"/>
<path id="Vector_2" d="M29 47.9984C35.3159 47.3339 41.6841 47.3339 48 47.9984" stroke="black" stroke-width="2" stroke-linecap="round" stroke-linejoin="round"/>
</g>
</g>
</g>
</g>
<defs>
<clipPath id="clip0_0_1">
<rect width="375" height="7824" fill="white" transform="translate(-149 -2310)"/>
</clipPath>
</defs>
</svg>
