<svg width="94" height="13" viewBox="0 0 94 13" fill="none" xmlns="http://www.w3.org/2000/svg">
<path d="M4.46856 12H6.14056V2.056H9.97256V0.48H0.636563V2.056H4.46856V12ZM14.9839 1.912H16.5839V0.311999H14.9839V1.912ZM11.7599 1.912H13.3599V0.311999H11.7599V1.912ZM13.7119 12.232C14.3359 12.232 14.8879 12.12 15.3679 11.896C15.8533 11.672 16.2533 11.3627 16.5679 10.968V12H18.0559V3.36H16.3679V7.856C16.3679 8.53867 16.2693 9.08533 16.0719 9.496C15.8746 9.90133 15.6079 10.1947 15.2719 10.376C14.9413 10.5573 14.5759 10.648 14.1759 10.648C13.7173 10.648 13.3439 10.5547 13.0559 10.368C12.7679 10.1813 12.5466 9.936 12.3919 9.632C12.2373 9.328 12.1306 9 12.0719 8.648C12.0186 8.29067 11.9919 7.944 11.9919 7.608V3.36H10.2959V8.16C10.2959 8.42667 10.3199 8.736 10.3679 9.088C10.4159 9.44 10.5066 9.8 10.6399 10.168C10.7733 10.536 10.9653 10.8773 11.2159 11.192C11.4719 11.5013 11.8026 11.752 12.2079 11.944C12.6133 12.136 13.1146 12.232 13.7119 12.232ZM20.2917 12H21.9717V6.6C21.9717 6.01333 22.1317 5.53867 22.4517 5.176C22.777 4.81333 23.2037 4.632 23.7317 4.632C24.265 4.632 24.689 4.81333 25.0037 5.176C25.3237 5.53333 25.4837 6.024 25.4837 6.648L25.4757 12H27.1477L27.1557 6.6C27.1557 5.94933 27.329 5.45867 27.6757 5.128C28.0277 4.79733 28.441 4.632 28.9157 4.632C29.4384 4.632 29.8597 4.808 30.1797 5.16C30.4997 5.512 30.6597 5.99733 30.6597 6.616L30.6517 12H32.3237L32.3317 6.216C32.3317 5.288 32.073 4.544 31.5557 3.984C31.0437 3.424 30.3237 3.144 29.3957 3.144C28.8304 3.144 28.3184 3.26933 27.8597 3.52C27.401 3.76533 27.0384 4.10667 26.7717 4.544C26.5424 4.10667 26.2144 3.76533 25.7877 3.52C25.3664 3.26933 24.857 3.144 24.2597 3.144C23.7424 3.144 23.2677 3.248 22.8357 3.456C22.409 3.65867 22.057 3.936 21.7797 4.288V3.36H20.2917V12ZM38.9371 1.912H40.5371V0.311999H38.9371V1.912ZM35.7131 1.912H37.3131V0.311999H35.7131V1.912ZM37.6651 12.232C38.2891 12.232 38.8411 12.12 39.3211 11.896C39.8064 11.672 40.2064 11.3627 40.5211 10.968V12H42.0091V3.36H40.3211V7.856C40.3211 8.53867 40.2224 9.08533 40.0251 9.496C39.8277 9.90133 39.5611 10.1947 39.2251 10.376C38.8944 10.5573 38.5291 10.648 38.1291 10.648C37.6704 10.648 37.2971 10.5547 37.0091 10.368C36.7211 10.1813 36.4997 9.936 36.3451 9.632C36.1904 9.328 36.0837 9 36.0251 8.648C35.9717 8.29067 35.9451 7.944 35.9451 7.608V3.36H34.2491V8.16C34.2491 8.42667 34.2731 8.736 34.3211 9.088C34.3691 9.44 34.4597 9.8 34.5931 10.168C34.7264 10.536 34.9184 10.8773 35.1691 11.192C35.4251 11.5013 35.7557 11.752 36.1611 11.944C36.5664 12.136 37.0677 12.232 37.6651 12.232ZM44.2448 12H45.9408V7.504C45.9408 6.82133 46.0395 6.27733 46.2368 5.872C46.4395 5.46133 46.7061 5.16533 47.0368 4.984C47.3675 4.80267 47.7328 4.712 48.1328 4.712C48.5915 4.712 48.9648 4.80533 49.2528 4.992C49.5408 5.17867 49.7621 5.424 49.9168 5.728C50.0715 6.032 50.1755 6.36267 50.2288 6.72C50.2875 7.072 50.3168 7.416 50.3168 7.752V12H52.0128V7.2C52.0128 6.93333 51.9888 6.624 51.9408 6.272C51.8928 5.92 51.8021 5.56 51.6688 5.192C51.5355 4.824 51.3408 4.48533 51.0848 4.176C50.8341 3.86133 50.5061 3.608 50.1008 3.416C49.6955 3.224 49.1941 3.128 48.5968 3.128C47.9728 3.128 47.4181 3.24 46.9328 3.464C46.4528 3.688 46.0555 3.99733 45.7408 4.392V3.36H44.2448V12ZM58.6246 1.912H60.2246V0.311999H58.6246V1.912ZM55.4006 1.912H57.0006V0.311999H55.4006V1.912ZM57.3526 12.232C57.9766 12.232 58.5286 12.12 59.0086 11.896C59.4939 11.672 59.8939 11.3627 60.2086 10.968V12H61.6966V3.36H60.0086V7.856C60.0086 8.53867 59.9099 9.08533 59.7126 9.496C59.5152 9.90133 59.2486 10.1947 58.9126 10.376C58.5819 10.5573 58.2166 10.648 57.8166 10.648C57.3579 10.648 56.9846 10.5547 56.6966 10.368C56.4086 10.1813 56.1872 9.936 56.0326 9.632C55.8779 9.328 55.7712 9 55.7126 8.648C55.6592 8.29067 55.6326 7.944 55.6326 7.608V3.36H53.9366V8.16C53.9366 8.42667 53.9606 8.736 54.0086 9.088C54.0566 9.44 54.1472 9.8 54.2806 10.168C54.4139 10.536 54.6059 10.8773 54.8566 11.192C55.1126 11.5013 55.4432 11.752 55.8486 11.944C56.2539 12.136 56.7552 12.232 57.3526 12.232ZM71.8554 12.24C72.9754 12.24 73.9248 12.0027 74.7034 11.528C75.4874 11.048 76.0848 10.3893 76.4954 9.552C76.9061 8.71467 77.1114 7.76267 77.1114 6.696C77.1114 6.65333 77.1088 6.55467 77.1034 6.4C77.0981 6.24533 77.0901 6.11733 77.0794 6.016H73.0634V7.36H75.3034C75.1861 8.42667 74.8448 9.24533 74.2794 9.816C73.7141 10.3813 72.9381 10.6587 71.9514 10.648C70.7301 10.6373 69.8101 10.2293 69.1914 9.424C68.5781 8.61867 68.2741 7.55733 68.2794 6.24C68.2848 5.36 68.4208 4.58933 68.6874 3.928C68.9594 3.26133 69.3674 2.744 69.9114 2.376C70.4554 2.008 71.1354 1.82667 71.9514 1.832C72.7461 1.83733 73.4048 2.04533 73.9274 2.456C74.4501 2.86667 74.8261 3.416 75.0554 4.104L76.7514 3.8C76.4581 2.69067 75.9061 1.82133 75.0954 1.192C74.2901 0.562666 73.2101 0.247999 71.8554 0.247999C70.8048 0.247999 69.8768 0.490666 69.0714 0.976C68.2661 1.456 67.6368 2.144 67.1834 3.04C66.7301 3.93067 66.5034 4.99733 66.5034 6.24C66.5034 7.49867 66.7354 8.576 67.1994 9.472C67.6634 10.368 68.2981 11.0533 69.1034 11.528C69.9088 12.0027 70.8261 12.24 71.8554 12.24ZM83.2819 1.912H84.8819V0.311999H83.2819V1.912ZM80.0579 1.912H81.6579V0.311999H80.0579V1.912ZM82.4579 12.24C83.3166 12.24 84.0633 12.048 84.6979 11.664C85.3326 11.2747 85.8233 10.7387 86.1699 10.056C86.5219 9.368 86.6979 8.57333 86.6979 7.672C86.6979 6.78133 86.5246 5.99467 86.1779 5.312C85.8313 4.624 85.3406 4.088 84.7059 3.704C84.0713 3.31467 83.3219 3.12 82.4579 3.12C81.6099 3.12 80.8686 3.312 80.2339 3.696C79.5993 4.08 79.1059 4.61333 78.7539 5.296C78.4019 5.97867 78.2259 6.77067 78.2259 7.672C78.2259 8.56267 78.3993 9.352 78.7459 10.04C79.0926 10.728 79.5806 11.2667 80.2099 11.656C80.8446 12.0453 81.5939 12.24 82.4579 12.24ZM82.4579 10.664C81.6526 10.664 81.0419 10.3947 80.6259 9.856C80.2099 9.312 80.0019 8.584 80.0019 7.672C80.0019 6.792 80.2019 6.07733 80.6019 5.528C81.0019 4.97333 81.6206 4.696 82.4579 4.696C83.2739 4.696 83.8873 4.96533 84.2979 5.504C84.7139 6.04267 84.9219 6.76533 84.9219 7.672C84.9219 8.55733 84.7166 9.27733 84.3059 9.832C83.9006 10.3867 83.2846 10.664 82.4579 10.664ZM88.4559 12H90.1439V7.64C90.1439 7.13333 90.2239 6.664 90.3839 6.232C90.5439 5.8 90.8266 5.45333 91.2319 5.192C91.5199 5.00533 91.8373 4.896 92.1839 4.864C92.5306 4.832 92.8426 4.85333 93.1199 4.928V3.36C92.7306 3.28533 92.3173 3.288 91.8799 3.368C91.4479 3.448 91.0693 3.608 90.7439 3.848C90.4239 4.06133 90.1573 4.35733 89.9439 4.736V3.36H88.4559V12Z" fill="#F84646"/>
</svg>
